<?xml version="1.0" encoding="UTF-8" standalone="no"?>
<!DOCTYPE svg PUBLIC "-//W3C//DTD SVG 1.1//EN"
 "http://www.w3.org/Graphics/SVG/1.1/DTD/svg11.dtd">
<!-- Generated by graphviz version 8.0.1 (20230327.1645)
 -->
<!-- Pages: 1 -->
<svg width="1636pt" height="764pt"
 viewBox="0.00 0.00 1636.38 764.00" xmlns="http://www.w3.org/2000/svg" xmlns:xlink="http://www.w3.org/1999/xlink">
<g id="graph0" class="graph" transform="scale(1 1) rotate(0) translate(4 760)">
<polygon fill="white" stroke="none" points="-4,4 -4,-760 1632.38,-760 1632.38,4 -4,4"/>
<!-- [root] aws_ecs_cluster.n8n_cluster (expand) -->
<g id="node1" class="node">
<title>[root] aws_ecs_cluster.n8n_cluster (expand)</title>
<polygon fill="none" stroke="black" points="937.99,-540 767.99,-540 767.99,-504 937.99,-504 937.99,-540"/>
<text text-anchor="middle" x="852.99" y="-518.3" font-family="Times,serif" font-size="14.00">aws_ecs_cluster.n8n_cluster</text>
</g>
<!-- [root] provider[&quot;registry.terraform.io/hashicorp/aws&quot;] -->
<g id="node18" class="node">
<title>[root] provider[&quot;registry.terraform.io/hashicorp/aws&quot;]</title>
<polygon fill="none" stroke="black" points="636.99,-108 384.45,-90 636.99,-72 889.52,-90 636.99,-108"/>
<text text-anchor="middle" x="636.99" y="-86.3" font-family="Times,serif" font-size="14.00">provider[&quot;registry.terraform.io/hashicorp/aws&quot;]</text>
</g>
<!-- [root] aws_ecs_cluster.n8n_cluster (expand)&#45;&gt;[root] provider[&quot;registry.terraform.io/hashicorp/aws&quot;] -->
<g id="edge1" class="edge">
<title>[root] aws_ecs_cluster.n8n_cluster (expand)&#45;&gt;[root] provider[&quot;registry.terraform.io/hashicorp/aws&quot;]</title>
<path fill="none" stroke="black" d="M868.18,-503.54C888.76,-478.02 922.99,-428.2 922.99,-379 922.99,-379 922.99,-379 922.99,-233 922.99,-153.15 832.45,-118.2 753.26,-102.91"/>
<polygon fill="black" stroke="black" points="754.14,-99.33 743.67,-100.96 752.87,-106.21 754.14,-99.33"/>
</g>
<!-- [root] var.tags -->
<g id="node23" class="node">
<title>[root] var.tags</title>
<polygon fill="none" stroke="black" points="803.49,-324 750.49,-324 750.49,-288 809.49,-288 809.49,-318 803.49,-324"/>
<polyline fill="none" stroke="black" points="803.49,-324 803.49,-318"/>
<polyline fill="none" stroke="black" points="809.49,-318 803.49,-318"/>
<text text-anchor="middle" x="779.99" y="-302.3" font-family="Times,serif" font-size="14.00">var.tags</text>
</g>
<!-- [root] aws_ecs_cluster.n8n_cluster (expand)&#45;&gt;[root] var.tags -->
<g id="edge2" class="edge">
<title>[root] aws_ecs_cluster.n8n_cluster (expand)&#45;&gt;[root] var.tags</title>
<path fill="none" stroke="black" d="M860.31,-503.69C872.22,-472.67 891.96,-406.52 865.99,-360 855.89,-341.91 836.8,-329.23 819.17,-320.82"/>
<polygon fill="black" stroke="black" points="821.15,-317.43 810.59,-316.58 818.31,-323.83 821.15,-317.43"/>
</g>
<!-- [root] aws_ecs_service.n8n_main_service (expand) -->
<g id="node2" class="node">
<title>[root] aws_ecs_service.n8n_main_service (expand)</title>
<polygon fill="none" stroke="black" points="899.99,-612 689.99,-612 689.99,-576 899.99,-576 899.99,-612"/>
<text text-anchor="middle" x="794.99" y="-590.3" font-family="Times,serif" font-size="14.00">aws_ecs_service.n8n_main_service</text>
</g>
<!-- [root] aws_ecs_service.n8n_main_service (expand)&#45;&gt;[root] aws_ecs_cluster.n8n_cluster (expand) -->
<g id="edge3" class="edge">
<title>[root] aws_ecs_service.n8n_main_service (expand)&#45;&gt;[root] aws_ecs_cluster.n8n_cluster (expand)</title>
<path fill="none" stroke="black" d="M809.33,-575.7C816.14,-567.47 824.42,-557.48 831.93,-548.42"/>
<polygon fill="black" stroke="black" points="835.13,-551.04 838.82,-541.1 829.74,-546.57 835.13,-551.04"/>
</g>
<!-- [root] aws_ecs_task_definition.n8n_main_task_definition (expand) -->
<g id="node3" class="node">
<title>[root] aws_ecs_task_definition.n8n_main_task_definition (expand)</title>
<polygon fill="none" stroke="black" points="856.99,-468 560.99,-468 560.99,-432 856.99,-432 856.99,-468"/>
<text text-anchor="middle" x="708.99" y="-446.3" font-family="Times,serif" font-size="14.00">aws_ecs_task_definition.n8n_main_task_definition</text>
</g>
<!-- [root] aws_ecs_service.n8n_main_service (expand)&#45;&gt;[root] aws_ecs_task_definition.n8n_main_task_definition (expand) -->
<g id="edge4" class="edge">
<title>[root] aws_ecs_service.n8n_main_service (expand)&#45;&gt;[root] aws_ecs_task_definition.n8n_main_task_definition (expand)</title>
<path fill="none" stroke="black" d="M782.61,-575.58C775.48,-565.36 766.48,-552.11 758.99,-540 746.3,-519.5 732.97,-495.65 723.27,-477.8"/>
<polygon fill="black" stroke="black" points="725.98,-476.45 718.15,-469.31 719.82,-479.77 725.98,-476.45"/>
</g>
<!-- [root] aws_iam_role_policy_attachment.n8n_task_execution_role_attach_ecs_secrets_access (expand) -->
<g id="node7" class="node">
<title>[root] aws_iam_role_policy_attachment.n8n_task_execution_role_attach_ecs_secrets_access (expand)</title>
<polygon fill="none" stroke="black" points="504.99,-468 16.99,-468 16.99,-432 504.99,-432 504.99,-468"/>
<text text-anchor="middle" x="260.99" y="-446.3" font-family="Times,serif" font-size="14.00">aws_iam_role_policy_attachment.n8n_task_execution_role_attach_ecs_secrets_access</text>
</g>
<!-- [root] aws_ecs_service.n8n_main_service (expand)&#45;&gt;[root] aws_iam_role_policy_attachment.n8n_task_execution_role_attach_ecs_secrets_access (expand) -->
<g id="edge5" class="edge">
<title>[root] aws_ecs_service.n8n_main_service (expand)&#45;&gt;[root] aws_iam_role_policy_attachment.n8n_task_execution_role_attach_ecs_secrets_access (expand)</title>
<path fill="none" stroke="black" d="M689.68,-590.61C534.97,-585.99 261.2,-573.18 230.99,-540 215.23,-522.7 226.57,-496.82 239.58,-477.43"/>
<polygon fill="black" stroke="black" points="243,-479.66 245.98,-469.49 237.31,-475.58 243,-479.66"/>
</g>
<!-- [root] aws_iam_role_policy_attachment.n8n_task_execution_role_attach_ecs_task_policy (expand) -->
<g id="node8" class="node">
<title>[root] aws_iam_role_policy_attachment.n8n_task_execution_role_attach_ecs_task_policy (expand)</title>
<polygon fill="none" stroke="black" points="711.99,-540 239.99,-540 239.99,-504 711.99,-504 711.99,-540"/>
<text text-anchor="middle" x="475.99" y="-518.3" font-family="Times,serif" font-size="14.00">aws_iam_role_policy_attachment.n8n_task_execution_role_attach_ecs_task_policy</text>
</g>
<!-- [root] aws_ecs_service.n8n_main_service (expand)&#45;&gt;[root] aws_iam_role_policy_attachment.n8n_task_execution_role_attach_ecs_task_policy (expand) -->
<g id="edge6" class="edge">
<title>[root] aws_ecs_service.n8n_main_service (expand)&#45;&gt;[root] aws_iam_role_policy_attachment.n8n_task_execution_role_attach_ecs_task_policy (expand)</title>
<path fill="none" stroke="black" d="M715.31,-575.52C669.93,-565.56 612.94,-553.05 565.95,-542.74"/>
<polygon fill="black" stroke="black" points="566.99,-539.17 556.48,-540.44 565.49,-546 566.99,-539.17"/>
</g>
<!-- [root] aws_lb_listener.n8n_https_forward (expand) -->
<g id="node10" class="node">
<title>[root] aws_lb_listener.n8n_https_forward (expand)</title>
<polygon fill="none" stroke="black" points="1407.49,-540 1200.49,-540 1200.49,-504 1407.49,-504 1407.49,-540"/>
<text text-anchor="middle" x="1303.99" y="-518.3" font-family="Times,serif" font-size="14.00">aws_lb_listener.n8n_https_forward</text>
</g>
<!-- [root] aws_ecs_service.n8n_main_service (expand)&#45;&gt;[root] aws_lb_listener.n8n_https_forward (expand) -->
<g id="edge7" class="edge">
<title>[root] aws_ecs_service.n8n_main_service (expand)&#45;&gt;[root] aws_lb_listener.n8n_https_forward (expand)</title>
<path fill="none" stroke="black" d="M900.11,-579.4C977.3,-569.31 1085.01,-554.99 1189.49,-540.2"/>
<polygon fill="black" stroke="black" points="1189.83,-543.55 1199.24,-538.67 1188.85,-536.61 1189.83,-543.55"/>
</g>
<!-- [root] aws_security_group.n8n_ecs_tasks_sg (expand) -->
<g id="node12" class="node">
<title>[root] aws_security_group.n8n_ecs_tasks_sg (expand)</title>
<polygon fill="none" stroke="black" points="1181.99,-540 955.99,-540 955.99,-504 1181.99,-504 1181.99,-540"/>
<text text-anchor="middle" x="1068.99" y="-518.3" font-family="Times,serif" font-size="14.00">aws_security_group.n8n_ecs_tasks_sg</text>
</g>
<!-- [root] aws_ecs_service.n8n_main_service (expand)&#45;&gt;[root] aws_security_group.n8n_ecs_tasks_sg (expand) -->
<g id="edge8" class="edge">
<title>[root] aws_ecs_service.n8n_main_service (expand)&#45;&gt;[root] aws_security_group.n8n_ecs_tasks_sg (expand)</title>
<path fill="none" stroke="black" d="M863.42,-575.52C901.98,-565.67 950.31,-553.32 990.41,-543.07"/>
<polygon fill="black" stroke="black" points="991.13,-546.25 999.95,-540.38 989.4,-539.47 991.13,-546.25"/>
</g>
<!-- [root] aws_iam_role.n8n_task_execution_role (expand) -->
<g id="node5" class="node">
<title>[root] aws_iam_role.n8n_task_execution_role (expand)</title>
<polygon fill="none" stroke="black" points="753.49,-396 520.49,-396 520.49,-360 753.49,-360 753.49,-396"/>
<text text-anchor="middle" x="636.99" y="-374.3" font-family="Times,serif" font-size="14.00">aws_iam_role.n8n_task_execution_role</text>
</g>
<!-- [root] aws_ecs_task_definition.n8n_main_task_definition (expand)&#45;&gt;[root] aws_iam_role.n8n_task_execution_role (expand) -->
<g id="edge9" class="edge">
<title>[root] aws_ecs_task_definition.n8n_main_task_definition (expand)&#45;&gt;[root] aws_iam_role.n8n_task_execution_role (expand)</title>
<path fill="none" stroke="black" d="M691.19,-431.7C682.54,-423.28 671.98,-413.02 662.49,-403.79"/>
<polygon fill="black" stroke="black" points="665.44,-401.81 655.83,-397.35 660.56,-406.83 665.44,-401.81"/>
</g>
<!-- [root] var.app_port -->
<g id="node19" class="node">
<title>[root] var.app_port</title>
<polygon fill="none" stroke="black" points="850.49,-396 771.49,-396 771.49,-360 856.49,-360 856.49,-390 850.49,-396"/>
<polyline fill="none" stroke="black" points="850.49,-396 850.49,-390"/>
<polyline fill="none" stroke="black" points="856.49,-390 850.49,-390"/>
<text text-anchor="middle" x="813.99" y="-374.3" font-family="Times,serif" font-size="14.00">var.app_port</text>
</g>
<!-- [root] aws_ecs_task_definition.n8n_main_task_definition (expand)&#45;&gt;[root] var.app_port -->
<g id="edge10" class="edge">
<title>[root] aws_ecs_task_definition.n8n_main_task_definition (expand)&#45;&gt;[root] var.app_port</title>
<path fill="none" stroke="black" d="M735.21,-431.52C748.47,-422.68 764.73,-411.84 779.03,-402.3"/>
<polygon fill="black" stroke="black" points="780.72,-404.72 787.1,-396.26 776.84,-398.9 780.72,-404.72"/>
</g>
<!-- [root] aws_iam_policy.ecs_secret_access (expand) -->
<g id="node4" class="node">
<title>[root] aws_iam_policy.ecs_secret_access (expand)</title>
<polygon fill="none" stroke="black" points="501.99,-396 295.99,-396 295.99,-360 501.99,-360 501.99,-396"/>
<text text-anchor="middle" x="398.99" y="-374.3" font-family="Times,serif" font-size="14.00">aws_iam_policy.ecs_secret_access</text>
</g>
<!-- [root] aws_iam_policy.ecs_secret_access (expand)&#45;&gt;[root] provider[&quot;registry.terraform.io/hashicorp/aws&quot;] -->
<g id="edge11" class="edge">
<title>[root] aws_iam_policy.ecs_secret_access (expand)&#45;&gt;[root] provider[&quot;registry.terraform.io/hashicorp/aws&quot;]</title>
<path fill="none" stroke="black" d="M402.43,-359.89C409.4,-328.61 427.62,-261.28 462.99,-216 499.29,-169.52 557.38,-132.66 596.33,-111.34"/>
<polygon fill="black" stroke="black" points="597.65,-114.07 604.8,-106.26 594.33,-107.9 597.65,-114.07"/>
</g>
<!-- [root] aws_iam_policy.ecs_secret_access (expand)&#45;&gt;[root] var.tags -->
<g id="edge12" class="edge">
<title>[root] aws_iam_policy.ecs_secret_access (expand)&#45;&gt;[root] var.tags</title>
<path fill="none" stroke="black" d="M494.15,-359.52C573.25,-344.98 681.89,-325.02 739.8,-314.38"/>
<polygon fill="black" stroke="black" points="740.14,-317.7 749.35,-312.45 738.88,-310.81 740.14,-317.7"/>
</g>
<!-- [root] data.aws_iam_policy_document.ecs_task_execution_role (expand) -->
<g id="node14" class="node">
<title>[root] data.aws_iam_policy_document.ecs_task_execution_role (expand)</title>
<polygon fill="none" stroke="black" points="801.49,-252 472.49,-252 472.49,-216 801.49,-216 801.49,-252"/>
<text text-anchor="middle" x="636.99" y="-230.3" font-family="Times,serif" font-size="14.00">data.aws_iam_policy_document.ecs_task_execution_role</text>
</g>
<!-- [root] aws_iam_role.n8n_task_execution_role (expand)&#45;&gt;[root] data.aws_iam_policy_document.ecs_task_execution_role (expand) -->
<g id="edge13" class="edge">
<title>[root] aws_iam_role.n8n_task_execution_role (expand)&#45;&gt;[root] data.aws_iam_policy_document.ecs_task_execution_role (expand)</title>
<path fill="none" stroke="black" d="M636.99,-359.59C636.99,-335.5 636.99,-291.75 636.99,-263.03"/>
<polygon fill="black" stroke="black" points="640.49,-263.11 636.99,-253.11 633.49,-263.11 640.49,-263.11"/>
</g>
<!-- [root] aws_iam_role.n8n_task_execution_role (expand)&#45;&gt;[root] var.tags -->
<g id="edge14" class="edge">
<title>[root] aws_iam_role.n8n_task_execution_role (expand)&#45;&gt;[root] var.tags</title>
<path fill="none" stroke="black" d="M672.7,-359.52C693.27,-349.45 719.16,-336.77 740.36,-326.4"/>
<polygon fill="black" stroke="black" points="741.59,-329.2 749.03,-321.66 738.51,-322.92 741.59,-329.2"/>
</g>
<!-- [root] aws_iam_role.n8n_task_role (expand) -->
<g id="node6" class="node">
<title>[root] aws_iam_role.n8n_task_role (expand)</title>
<polygon fill="none" stroke="black" points="277.49,-396 104.49,-396 104.49,-360 277.49,-360 277.49,-396"/>
<text text-anchor="middle" x="190.99" y="-374.3" font-family="Times,serif" font-size="14.00">aws_iam_role.n8n_task_role</text>
</g>
<!-- [root] aws_iam_role.n8n_task_role (expand)&#45;&gt;[root] provider[&quot;registry.terraform.io/hashicorp/aws&quot;] -->
<g id="edge15" class="edge">
<title>[root] aws_iam_role.n8n_task_role (expand)&#45;&gt;[root] provider[&quot;registry.terraform.io/hashicorp/aws&quot;]</title>
<path fill="none" stroke="black" d="M209.5,-359.58C254.93,-317.58 376.89,-209.38 494.99,-144 521.21,-129.49 552.2,-117.4 578.53,-108.45"/>
<polygon fill="black" stroke="black" points="579.36,-111.53 587.75,-105.05 577.15,-104.88 579.36,-111.53"/>
</g>
<!-- [root] aws_iam_role.n8n_task_role (expand)&#45;&gt;[root] var.tags -->
<g id="edge16" class="edge">
<title>[root] aws_iam_role.n8n_task_role (expand)&#45;&gt;[root] var.tags</title>
<path fill="none" stroke="black" d="M277.81,-361.35C280.9,-360.88 283.97,-360.43 286.99,-360 454.23,-336.23 654.75,-317.76 739.26,-310.43"/>
<polygon fill="black" stroke="black" points="739.51,-313.84 749.17,-309.49 738.91,-306.86 739.51,-313.84"/>
</g>
<!-- [root] aws_iam_role_policy_attachment.n8n_task_execution_role_attach_ecs_secrets_access (expand)&#45;&gt;[root] aws_iam_policy.ecs_secret_access (expand) -->
<g id="edge17" class="edge">
<title>[root] aws_iam_role_policy_attachment.n8n_task_execution_role_attach_ecs_secrets_access (expand)&#45;&gt;[root] aws_iam_policy.ecs_secret_access (expand)</title>
<path fill="none" stroke="black" d="M295.46,-431.52C313.54,-422.34 335.89,-411.01 355.18,-401.22"/>
<polygon fill="black" stroke="black" points="356.63,-403.91 363.96,-396.26 353.46,-397.66 356.63,-403.91"/>
</g>
<!-- [root] aws_iam_role_policy_attachment.n8n_task_execution_role_attach_ecs_secrets_access (expand)&#45;&gt;[root] aws_iam_role.n8n_task_execution_role (expand) -->
<g id="edge18" class="edge">
<title>[root] aws_iam_role_policy_attachment.n8n_task_execution_role_attach_ecs_secrets_access (expand)&#45;&gt;[root] aws_iam_role.n8n_task_execution_role (expand)</title>
<path fill="none" stroke="black" d="M354.9,-431.52C408.95,-421.45 476.98,-408.79 532.69,-398.42"/>
<polygon fill="black" stroke="black" points="533.11,-401.71 542.3,-396.44 531.83,-394.83 533.11,-401.71"/>
</g>
<!-- [root] aws_iam_role_policy_attachment.n8n_task_execution_role_attach_ecs_task_policy (expand)&#45;&gt;[root] aws_iam_role.n8n_task_execution_role (expand) -->
<g id="edge19" class="edge">
<title>[root] aws_iam_role_policy_attachment.n8n_task_execution_role_attach_ecs_task_policy (expand)&#45;&gt;[root] aws_iam_role.n8n_task_execution_role (expand)</title>
<path fill="none" stroke="black" d="M488.34,-503.55C502.35,-484.52 526.58,-453.87 551.99,-432 564.96,-420.83 580.53,-410.42 594.77,-401.82"/>
<polygon fill="black" stroke="black" points="596.06,-404.54 602.9,-396.45 592.51,-398.51 596.06,-404.54"/>
</g>
<!-- [root] aws_lb.n8n_ecs_alb (expand) -->
<g id="node9" class="node">
<title>[root] aws_lb.n8n_ecs_alb (expand)</title>
<polygon fill="none" stroke="black" points="1462.99,-468 1336.99,-468 1336.99,-432 1462.99,-432 1462.99,-468"/>
<text text-anchor="middle" x="1399.99" y="-446.3" font-family="Times,serif" font-size="14.00">aws_lb.n8n_ecs_alb</text>
</g>
<!-- [root] aws_security_group.n8n_lb (expand) -->
<g id="node13" class="node">
<title>[root] aws_security_group.n8n_lb (expand)</title>
<polygon fill="none" stroke="black" points="1118.49,-396 951.49,-396 951.49,-360 1118.49,-360 1118.49,-396"/>
<text text-anchor="middle" x="1034.99" y="-374.3" font-family="Times,serif" font-size="14.00">aws_security_group.n8n_lb</text>
</g>
<!-- [root] aws_lb.n8n_ecs_alb (expand)&#45;&gt;[root] aws_security_group.n8n_lb (expand) -->
<g id="edge20" class="edge">
<title>[root] aws_lb.n8n_ecs_alb (expand)&#45;&gt;[root] aws_security_group.n8n_lb (expand)</title>
<path fill="none" stroke="black" d="M1336.83,-436.89C1279.71,-425.93 1194.83,-409.65 1129.61,-397.15"/>
<polygon fill="black" stroke="black" points="1130.39,-393.54 1119.91,-395.1 1129.07,-400.42 1130.39,-393.54"/>
</g>
<!-- [root] local.subnets_ids (expand) -->
<g id="node24" class="node">
<title>[root] local.subnets_ids (expand)</title>
<ellipse fill="none" stroke="black" cx="1500.99" cy="-378" rx="127.28" ry="18"/>
<text text-anchor="middle" x="1500.99" y="-374.3" font-family="Times,serif" font-size="14.00">[root] local.subnets_ids (expand)</text>
</g>
<!-- [root] aws_lb.n8n_ecs_alb (expand)&#45;&gt;[root] local.subnets_ids (expand) -->
<g id="edge21" class="edge">
<title>[root] aws_lb.n8n_ecs_alb (expand)&#45;&gt;[root] local.subnets_ids (expand)</title>
<path fill="none" stroke="black" d="M1425.21,-431.52C1438.06,-422.61 1453.84,-411.67 1467.68,-402.09"/>
<polygon fill="black" stroke="black" points="1469.21,-404.59 1475.43,-396.02 1465.22,-398.84 1469.21,-404.59"/>
</g>
<!-- [root] aws_lb_listener.n8n_https_forward (expand)&#45;&gt;[root] aws_lb.n8n_ecs_alb (expand) -->
<g id="edge22" class="edge">
<title>[root] aws_lb_listener.n8n_https_forward (expand)&#45;&gt;[root] aws_lb.n8n_ecs_alb (expand)</title>
<path fill="none" stroke="black" d="M1327.72,-503.7C1339.72,-494.95 1354.47,-484.19 1367.5,-474.69"/>
<polygon fill="black" stroke="black" points="1369.18,-477.07 1375.2,-468.35 1365.06,-471.41 1369.18,-477.07"/>
</g>
<!-- [root] aws_lb_target_group.n8n_ecs_alb_tg (expand) -->
<g id="node11" class="node">
<title>[root] aws_lb_target_group.n8n_ecs_alb_tg (expand)</title>
<polygon fill="none" stroke="black" points="1355.49,-396 1136.49,-396 1136.49,-360 1355.49,-360 1355.49,-396"/>
<text text-anchor="middle" x="1245.99" y="-374.3" font-family="Times,serif" font-size="14.00">aws_lb_target_group.n8n_ecs_alb_tg</text>
</g>
<!-- [root] aws_lb_listener.n8n_https_forward (expand)&#45;&gt;[root] aws_lb_target_group.n8n_ecs_alb_tg (expand) -->
<g id="edge23" class="edge">
<title>[root] aws_lb_listener.n8n_https_forward (expand)&#45;&gt;[root] aws_lb_target_group.n8n_ecs_alb_tg (expand)</title>
<path fill="none" stroke="black" d="M1296.88,-503.59C1286.95,-479.29 1268.85,-434.97 1257.13,-406.27"/>
<polygon fill="black" stroke="black" points="1260,-405.04 1252.98,-397.11 1253.52,-407.69 1260,-405.04"/>
</g>
<!-- [root] data.aws_vpc.default (expand) -->
<g id="node17" class="node">
<title>[root] data.aws_vpc.default (expand)</title>
<polygon fill="none" stroke="black" points="1205.49,-180 1074.49,-180 1074.49,-144 1205.49,-144 1205.49,-180"/>
<text text-anchor="middle" x="1139.99" y="-158.3" font-family="Times,serif" font-size="14.00">data.aws_vpc.default</text>
</g>
<!-- [root] aws_lb_target_group.n8n_ecs_alb_tg (expand)&#45;&gt;[root] data.aws_vpc.default (expand) -->
<g id="edge24" class="edge">
<title>[root] aws_lb_target_group.n8n_ecs_alb_tg (expand)&#45;&gt;[root] data.aws_vpc.default (expand)</title>
<path fill="none" stroke="black" d="M1237.49,-359.85C1219.08,-322.68 1175.37,-234.44 1153.27,-189.82"/>
<polygon fill="black" stroke="black" points="1156.1,-188.64 1148.52,-181.23 1149.83,-191.75 1156.1,-188.64"/>
</g>
<!-- [root] aws_lb_target_group.n8n_ecs_alb_tg (expand)&#45;&gt;[root] var.tags -->
<g id="edge25" class="edge">
<title>[root] aws_lb_target_group.n8n_ecs_alb_tg (expand)&#45;&gt;[root] var.tags</title>
<path fill="none" stroke="black" d="M1136.14,-360.5C1034.74,-345.27 889.67,-323.48 820.14,-313.03"/>
<polygon fill="black" stroke="black" points="821.06,-309.48 810.65,-311.46 820.02,-316.4 821.06,-309.48"/>
</g>
<!-- [root] aws_security_group.n8n_ecs_tasks_sg (expand)&#45;&gt;[root] aws_security_group.n8n_lb (expand) -->
<g id="edge26" class="edge">
<title>[root] aws_security_group.n8n_ecs_tasks_sg (expand)&#45;&gt;[root] aws_security_group.n8n_lb (expand)</title>
<path fill="none" stroke="black" d="M1064.82,-503.59C1059.03,-479.4 1048.48,-435.36 1041.61,-406.65"/>
<polygon fill="black" stroke="black" points="1044.82,-406.02 1039.08,-397.11 1038.01,-407.65 1044.82,-406.02"/>
</g>
<!-- [root] aws_security_group.n8n_lb (expand)&#45;&gt;[root] data.aws_vpc.default (expand) -->
<g id="edge27" class="edge">
<title>[root] aws_security_group.n8n_lb (expand)&#45;&gt;[root] data.aws_vpc.default (expand)</title>
<path fill="none" stroke="black" d="M1043.4,-359.85C1061.6,-322.75 1104.75,-234.81 1126.69,-190.1"/>
<polygon fill="black" stroke="black" points="1130.27,-191.75 1131.53,-181.23 1123.99,-188.67 1130.27,-191.75"/>
</g>
<!-- [root] aws_security_group.n8n_lb (expand)&#45;&gt;[root] var.tags -->
<g id="edge28" class="edge">
<title>[root] aws_security_group.n8n_lb (expand)&#45;&gt;[root] var.tags</title>
<path fill="none" stroke="black" d="M971.3,-359.52C924,-346.53 860.93,-329.22 820.37,-318.09"/>
<polygon fill="black" stroke="black" points="821.39,-314.46 810.82,-315.19 819.54,-321.21 821.39,-314.46"/>
</g>
<!-- [root] data.aws_iam_policy_document.ecs_task_execution_role (expand)&#45;&gt;[root] provider[&quot;registry.terraform.io/hashicorp/aws&quot;] -->
<g id="edge29" class="edge">
<title>[root] data.aws_iam_policy_document.ecs_task_execution_role (expand)&#45;&gt;[root] provider[&quot;registry.terraform.io/hashicorp/aws&quot;]</title>
<path fill="none" stroke="black" d="M636.99,-215.59C636.99,-191.5 636.99,-147.75 636.99,-119.03"/>
<polygon fill="black" stroke="black" points="640.49,-119.11 636.99,-109.11 633.49,-119.11 640.49,-119.11"/>
</g>
<!-- [root] data.aws_subnet.default_vpc_subnets_ids (expand) -->
<g id="node15" class="node">
<title>[root] data.aws_subnet.default_vpc_subnets_ids (expand)</title>
<polygon fill="none" stroke="black" points="1569.49,-324 1326.49,-324 1326.49,-288 1569.49,-288 1569.49,-324"/>
<text text-anchor="middle" x="1447.99" y="-302.3" font-family="Times,serif" font-size="14.00">data.aws_subnet.default_vpc_subnets_ids</text>
</g>
<!-- [root] data.aws_subnets.default_vpc_subnets (expand) -->
<g id="node16" class="node">
<title>[root] data.aws_subnets.default_vpc_subnets (expand)</title>
<polygon fill="none" stroke="black" points="1508.99,-252 1282.99,-252 1282.99,-216 1508.99,-216 1508.99,-252"/>
<text text-anchor="middle" x="1395.99" y="-230.3" font-family="Times,serif" font-size="14.00">data.aws_subnets.default_vpc_subnets</text>
</g>
<!-- [root] data.aws_subnet.default_vpc_subnets_ids (expand)&#45;&gt;[root] data.aws_subnets.default_vpc_subnets (expand) -->
<g id="edge30" class="edge">
<title>[root] data.aws_subnet.default_vpc_subnets_ids (expand)&#45;&gt;[root] data.aws_subnets.default_vpc_subnets (expand)</title>
<path fill="none" stroke="black" d="M1435.13,-287.7C1429.09,-279.56 1421.76,-269.69 1415.08,-260.7"/>
<polygon fill="black" stroke="black" points="1417.47,-259.04 1408.69,-253.1 1411.85,-263.22 1417.47,-259.04"/>
</g>
<!-- [root] data.aws_subnets.default_vpc_subnets (expand)&#45;&gt;[root] data.aws_vpc.default (expand) -->
<g id="edge31" class="edge">
<title>[root] data.aws_subnets.default_vpc_subnets (expand)&#45;&gt;[root] data.aws_vpc.default (expand)</title>
<path fill="none" stroke="black" d="M1332.05,-215.52C1296.18,-205.71 1251.26,-193.43 1213.88,-183.21"/>
<polygon fill="black" stroke="black" points="1215.12,-179.64 1204.56,-180.38 1213.28,-186.4 1215.12,-179.64"/>
</g>
<!-- [root] data.aws_vpc.default (expand)&#45;&gt;[root] provider[&quot;registry.terraform.io/hashicorp/aws&quot;] -->
<g id="edge32" class="edge">
<title>[root] data.aws_vpc.default (expand)&#45;&gt;[root] provider[&quot;registry.terraform.io/hashicorp/aws&quot;]</title>
<path fill="none" stroke="black" d="M1074.23,-151.85C986.49,-139.64 830.59,-117.94 730.6,-104.03"/>
<polygon fill="black" stroke="black" points="731.29,-100.45 720.9,-102.54 730.32,-107.38 731.29,-100.45"/>
</g>
<!-- [root] var.aws_access_key_id -->
<g id="node20" class="node">
<title>[root] var.aws_access_key_id</title>
<polygon fill="none" stroke="black" points="563.49,-36 426.49,-36 426.49,0 569.49,0 569.49,-30 563.49,-36"/>
<polyline fill="none" stroke="black" points="563.49,-36 563.49,-30"/>
<polyline fill="none" stroke="black" points="569.49,-30 563.49,-30"/>
<text text-anchor="middle" x="497.99" y="-14.3" font-family="Times,serif" font-size="14.00">var.aws_access_key_id</text>
</g>
<!-- [root] provider[&quot;registry.terraform.io/hashicorp/aws&quot;]&#45;&gt;[root] var.aws_access_key_id -->
<g id="edge37" class="edge">
<title>[root] provider[&quot;registry.terraform.io/hashicorp/aws&quot;]&#45;&gt;[root] var.aws_access_key_id</title>
<path fill="none" stroke="black" d="M606.83,-73.81C587.94,-64.3 563.27,-51.88 542.2,-41.27"/>
<polygon fill="black" stroke="black" points="544,-37.75 533.5,-36.38 540.85,-44 544,-37.75"/>
</g>
<!-- [root] var.aws_region -->
<g id="node21" class="node">
<title>[root] var.aws_region</title>
<polygon fill="none" stroke="black" points="680.49,-36 587.49,-36 587.49,0 686.49,0 686.49,-30 680.49,-36"/>
<polyline fill="none" stroke="black" points="680.49,-36 680.49,-30"/>
<polyline fill="none" stroke="black" points="686.49,-30 680.49,-30"/>
<text text-anchor="middle" x="636.99" y="-14.3" font-family="Times,serif" font-size="14.00">var.aws_region</text>
</g>
<!-- [root] provider[&quot;registry.terraform.io/hashicorp/aws&quot;]&#45;&gt;[root] var.aws_region -->
<g id="edge38" class="edge">
<title>[root] provider[&quot;registry.terraform.io/hashicorp/aws&quot;]&#45;&gt;[root] var.aws_region</title>
<path fill="none" stroke="black" d="M636.99,-71.7C636.99,-64.24 636.99,-55.32 636.99,-46.97"/>
<polygon fill="black" stroke="black" points="640.49,-47.1 636.99,-37.1 633.49,-47.1 640.49,-47.1"/>
</g>
<!-- [root] var.aws_secret_key -->
<g id="node22" class="node">
<title>[root] var.aws_secret_key</title>
<polygon fill="none" stroke="black" points="820.99,-36 704.99,-36 704.99,0 826.99,0 826.99,-30 820.99,-36"/>
<polyline fill="none" stroke="black" points="820.99,-36 820.99,-30"/>
<polyline fill="none" stroke="black" points="826.99,-30 820.99,-30"/>
<text text-anchor="middle" x="765.99" y="-14.3" font-family="Times,serif" font-size="14.00">var.aws_secret_key</text>
</g>
<!-- [root] provider[&quot;registry.terraform.io/hashicorp/aws&quot;]&#45;&gt;[root] var.aws_secret_key -->
<g id="edge39" class="edge">
<title>[root] provider[&quot;registry.terraform.io/hashicorp/aws&quot;]&#45;&gt;[root] var.aws_secret_key</title>
<path fill="none" stroke="black" d="M665.3,-73.64C682.68,-64.2 705.25,-51.96 724.62,-41.45"/>
<polygon fill="black" stroke="black" points="726,-44.14 733.12,-36.29 722.66,-37.99 726,-44.14"/>
</g>
<!-- [root] local.subnets_ids (expand)&#45;&gt;[root] data.aws_subnet.default_vpc_subnets_ids (expand) -->
<g id="edge33" class="edge">
<title>[root] local.subnets_ids (expand)&#45;&gt;[root] data.aws_subnet.default_vpc_subnets_ids (expand)</title>
<path fill="none" stroke="black" d="M1487.89,-359.7C1481.73,-351.56 1474.25,-341.69 1467.45,-332.7"/>
<polygon fill="black" stroke="black" points="1469.77,-330.96 1460.94,-325.1 1464.18,-335.19 1469.77,-330.96"/>
</g>
<!-- [root] output.app_url (expand) -->
<g id="node25" class="node">
<title>[root] output.app_url (expand)</title>
<ellipse fill="none" stroke="black" cx="1379.99" cy="-594" rx="118.08" ry="18"/>
<text text-anchor="middle" x="1379.99" y="-590.3" font-family="Times,serif" font-size="14.00">[root] output.app_url (expand)</text>
</g>
<!-- [root] output.app_url (expand)&#45;&gt;[root] aws_lb.n8n_ecs_alb (expand) -->
<g id="edge34" class="edge">
<title>[root] output.app_url (expand)&#45;&gt;[root] aws_lb.n8n_ecs_alb (expand)</title>
<path fill="none" stroke="black" d="M1396.02,-575.85C1404,-566.12 1412.81,-553.27 1416.99,-540 1423.32,-519.87 1418.35,-496.4 1412.18,-478.61"/>
<polygon fill="black" stroke="black" points="1415.1,-477.45 1408.27,-469.35 1408.56,-479.94 1415.1,-477.45"/>
</g>
<!-- [root] provider[&quot;registry.terraform.io/hashicorp/aws&quot;] (close) -->
<g id="node26" class="node">
<title>[root] provider[&quot;registry.terraform.io/hashicorp/aws&quot;] (close)</title>
<ellipse fill="none" stroke="black" cx="794.99" cy="-666" rx="227.46" ry="18"/>
<text text-anchor="middle" x="794.99" y="-662.3" font-family="Times,serif" font-size="14.00">[root] provider[&quot;registry.terraform.io/hashicorp/aws&quot;] (close)</text>
</g>
<!-- [root] provider[&quot;registry.terraform.io/hashicorp/aws&quot;] (close)&#45;&gt;[root] aws_ecs_service.n8n_main_service (expand) -->
<g id="edge35" class="edge">
<title>[root] provider[&quot;registry.terraform.io/hashicorp/aws&quot;] (close)&#45;&gt;[root] aws_ecs_service.n8n_main_service (expand)</title>
<path fill="none" stroke="black" d="M794.99,-647.7C794.99,-640.24 794.99,-631.32 794.99,-622.97"/>
<polygon fill="black" stroke="black" points="798.49,-623.1 794.99,-613.1 791.49,-623.1 798.49,-623.1"/>
</g>
<!-- [root] provider[&quot;registry.terraform.io/hashicorp/aws&quot;] (close)&#45;&gt;[root] aws_iam_role.n8n_task_role (expand) -->
<g id="edge36" class="edge">
<title>[root] provider[&quot;registry.terraform.io/hashicorp/aws&quot;] (close)&#45;&gt;[root] aws_iam_role.n8n_task_role (expand)</title>
<path fill="none" stroke="black" d="M655.71,-651.4C450.43,-628.03 82.79,-572.4 7.99,-468 -20.63,-428.05 35.87,-405.24 93.45,-392.74"/>
<polygon fill="black" stroke="black" points="94.1,-395.97 103.19,-390.52 92.69,-389.11 94.1,-395.97"/>
</g>
<!-- [root] root -->
<g id="node27" class="node">
<title>[root] root</title>
<ellipse fill="none" stroke="black" cx="921.99" cy="-738" rx="47.39" ry="18"/>
<text text-anchor="middle" x="921.99" y="-734.3" font-family="Times,serif" font-size="14.00">[root] root</text>
</g>
<!-- [root] root&#45;&gt;[root] output.app_url (expand) -->
<g id="edge40" class="edge">
<title>[root] root&#45;&gt;[root] output.app_url (expand)</title>
<path fill="none" stroke="black" d="M957.93,-725.86C1036.08,-701.63 1222.23,-643.91 1319.08,-613.88"/>
<polygon fill="black" stroke="black" points="1320.07,-616.93 1328.59,-610.63 1318,-610.24 1320.07,-616.93"/>
</g>
<!-- [root] root&#45;&gt;[root] provider[&quot;registry.terraform.io/hashicorp/aws&quot;] (close) -->
<g id="edge41" class="edge">
<title>[root] root&#45;&gt;[root] provider[&quot;registry.terraform.io/hashicorp/aws&quot;] (close)</title>
<path fill="none" stroke="black" d="M895.98,-722.67C878.64,-713.11 855.5,-700.35 835.74,-689.46"/>
<polygon fill="black" stroke="black" points="837.8,-686.05 827.35,-684.29 834.42,-692.18 837.8,-686.05"/>
</g>
</g>
</svg>
